solid OpenSCAD_Model
  facet normal -1 0 0
    outer loop
      vertex -5 -5 0
      vertex -5 -5 5
      vertex -5 45 0
    endloop
  endfacet
  facet normal -1 0 0
    outer loop
      vertex -5 45 0
      vertex -5 -5 5
      vertex -5 45 5
    endloop
  endfacet
  facet normal 0 -1 0
    outer loop
      vertex -5 -5 5
      vertex -5 -5 0
      vertex 85 -5 0
    endloop
  endfacet
  facet normal 0 -1 0
    outer loop
      vertex 85 -5 5
      vertex -5 -5 5
      vertex 85 -5 0
    endloop
  endfacet
  facet normal 0 0 -1
    outer loop
      vertex -5 -5 0
      vertex -5 45 0
      vertex 85 -5 0
    endloop
  endfacet
  facet normal 0 0 -1
    outer loop
      vertex 85 -5 0
      vertex -5 45 0
      vertex 85 45 0
    endloop
  endfacet
  facet normal 0 1 0
    outer loop
      vertex -5 45 0
      vertex -5 45 5
      vertex 85 45 0
    endloop
  endfacet
  facet normal 0 1 0
    outer loop
      vertex 85 45 0
      vertex -5 45 5
      vertex 85 45 5
    endloop
  endfacet
  facet normal 0 0 1
    outer loop
      vertex 0 0 5
      vertex -5 -5 5
      vertex 85 -5 5
    endloop
  endfacet
  facet normal 0 0 1
    outer loop
      vertex -5 45 5
      vertex -5 -5 5
      vertex 0 0 5
    endloop
  endfacet
  facet normal 0 0 1
    outer loop
      vertex 0 40 5
      vertex 80 40 5
      vertex -5 45 5
    endloop
  endfacet
  facet normal 0 0 1
    outer loop
      vertex -5 45 5
      vertex 0 0 5
      vertex 0 40 5
    endloop
  endfacet
  facet normal 0 0 1
    outer loop
      vertex 85 45 5
      vertex 80 40 5
      vertex 85 -5 5
    endloop
  endfacet
  facet normal 0 0 1
    outer loop
      vertex 85 45 5
      vertex -5 45 5
      vertex 80 40 5
    endloop
  endfacet
  facet normal 0 0 1
    outer loop
      vertex 80 40 5
      vertex 80 0 5
      vertex 85 -5 5
    endloop
  endfacet
  facet normal 0 0 1
    outer loop
      vertex 80 0 5
      vertex 0 0 5
      vertex 85 -5 5
    endloop
  endfacet
  facet normal 1 0 0
    outer loop
      vertex 85 -5 5
      vertex 85 -5 0
      vertex 85 45 0
    endloop
  endfacet
  facet normal 1 0 0
    outer loop
      vertex 85 45 5
      vertex 85 -5 5
      vertex 85 45 0
    endloop
  endfacet
  facet normal -1 0 0
    outer loop
      vertex 0 0 5
      vertex 0 0 45
      vertex 0 40 5
    endloop
  endfacet
  facet normal -1 0 0
    outer loop
      vertex 0 40 5
      vertex 0 0 45
      vertex 0 40 45
    endloop
  endfacet
  facet normal 0 -1 0
    outer loop
      vertex 0 0 45
      vertex 0 0 5
      vertex 80 0 5
    endloop
  endfacet
  facet normal 0 -1 0
    outer loop
      vertex 40 0 27
      vertex 0 0 45
      vertex 80 0 5
    endloop
  endfacet
  facet normal 0 -1 0
    outer loop
      vertex 80 0 45
      vertex 76 0 45
      vertex 80 0 5
    endloop
  endfacet
  facet normal 0 -1 0
    outer loop
      vertex 76 0 45
      vertex 40 0 27
      vertex 80 0 5
    endloop
  endfacet
  facet normal 0 -1 0
    outer loop
      vertex 4 0 45
      vertex 0 0 45
      vertex 40 0 27
    endloop
  endfacet
  facet normal 1 0 0
    outer loop
      vertex 80 0 45
      vertex 80 0 5
      vertex 80 40 5
    endloop
  endfacet
  facet normal 1 0 0
    outer loop
      vertex 80 40 45
      vertex 80 0 45
      vertex 80 40 5
    endloop
  endfacet
  facet normal 0 1 0
    outer loop
      vertex 0 40 5
      vertex 0 40 45
      vertex 80 40 5
    endloop
  endfacet
  facet normal 0 1 0
    outer loop
      vertex 80 40 5
      vertex 0 40 45
      vertex 4 40 45
    endloop
  endfacet
  facet normal 0 1 0
    outer loop
      vertex 80 40 5
      vertex 4 40 45
      vertex 40 40 27
    endloop
  endfacet
  facet normal 0 1 0
    outer loop
      vertex 80 40 5
      vertex 40 40 27
      vertex 76 40 45
    endloop
  endfacet
  facet normal 0 1 0
    outer loop
      vertex 80 40 5
      vertex 76 40 45
      vertex 80 40 45
    endloop
  endfacet
  facet normal 0 0 1
    outer loop
      vertex 0 40 45
      vertex 0 0 45
      vertex 4 0 45
    endloop
  endfacet
  facet normal 0 0 1
    outer loop
      vertex 4 40 45
      vertex 0 40 45
      vertex 4 0 45
    endloop
  endfacet
  facet normal 0.447214 1.98603e-16 0.894427
    outer loop
      vertex 4 0 45
      vertex 40 0 27
      vertex 40 40 27
    endloop
  endfacet
  facet normal 0.447214 1.98603e-16 0.894427
    outer loop
      vertex 4 40 45
      vertex 4 0 45
      vertex 40 40 27
    endloop
  endfacet
  facet normal -0.447214 1.98603e-16 0.894427
    outer loop
      vertex 76 0 45
      vertex 76 40 45
      vertex 40 40 27
    endloop
  endfacet
  facet normal -0.447214 1.98603e-16 0.894427
    outer loop
      vertex 40 0 27
      vertex 76 0 45
      vertex 40 40 27
    endloop
  endfacet
  facet normal 0 0 1
    outer loop
      vertex 76 40 45
      vertex 76 0 45
      vertex 80 0 45
    endloop
  endfacet
  facet normal 0 0 1
    outer loop
      vertex 80 40 45
      vertex 76 40 45
      vertex 80 0 45
    endloop
  endfacet
endsolid OpenSCAD_Model
