solid OpenSCAD_Model
  facet normal -1 0 0
    outer loop
      vertex -10 -2 -3
      vertex -10 -2 0
      vertex -10 15.5 -3
    endloop
  endfacet
  facet normal -1 0 0
    outer loop
      vertex -10 15.5 -3
      vertex -10 -2 0
      vertex -10 15.5 0
    endloop
  endfacet
  facet normal 0 -1 0
    outer loop
      vertex -10 -2 0
      vertex -10 -2 -3
      vertex 14.5 -2 -3
    endloop
  endfacet
  facet normal 0 -1 0
    outer loop
      vertex 14.5 -2 0
      vertex -10 -2 0
      vertex 14.5 -2 -3
    endloop
  endfacet
  facet normal 0 0 -1
    outer loop
      vertex -10 -2 -3
      vertex -10 15.5 -3
      vertex 14.5 -2 -3
    endloop
  endfacet
  facet normal 0 0 -1
    outer loop
      vertex 14.5 -2 -3
      vertex -10 15.5 -3
      vertex 14.5 15.5 -3
    endloop
  endfacet
  facet normal 0 1 0
    outer loop
      vertex -10 15.5 -3
      vertex -10 15.5 0
      vertex 14.5 15.5 -3
    endloop
  endfacet
  facet normal 0 1 0
    outer loop
      vertex 14.5 15.5 -3
      vertex -10 15.5 0
      vertex 14.5 15.5 0
    endloop
  endfacet
  facet normal 0 0 1
    outer loop
      vertex 0 13.5 0
      vertex 14.5 15.5 0
      vertex -10 15.5 0
    endloop
  endfacet
  facet normal 0 0 1
    outer loop
      vertex 4.5 2 0
      vertex 14.5 -2 0
      vertex -10 15.5 0
    endloop
  endfacet
  facet normal 0 0 1
    outer loop
      vertex -10 -2 0
      vertex 0 2 0
      vertex -10 15.5 0
    endloop
  endfacet
  facet normal 0 0 1
    outer loop
      vertex 0 2 0
      vertex 4.5 2 0
      vertex -10 15.5 0
    endloop
  endfacet
  facet normal 0 0 1
    outer loop
      vertex 4.5 11.5 0
      vertex 0 11.5 0
      vertex 14.5 -2 0
    endloop
  endfacet
  facet normal 0 0 1
    outer loop
      vertex -10 -2 0
      vertex 14.5 -2 0
      vertex 4.5 0 0
    endloop
  endfacet
  facet normal 0 0 1
    outer loop
      vertex -10 -2 0
      vertex 0 0 0
      vertex 0 2 0
    endloop
  endfacet
  facet normal 0 0 1
    outer loop
      vertex -10 -2 0
      vertex 4.5 0 0
      vertex 0 0 0
    endloop
  endfacet
  facet normal 0 0 1
    outer loop
      vertex 0 11.5 0
      vertex 0 13.5 0
      vertex -10 15.5 0
    endloop
  endfacet
  facet normal 0 0 1
    outer loop
      vertex 4.5 13.5 0
      vertex 14.5 15.5 0
      vertex 0 13.5 0
    endloop
  endfacet
  facet normal 0 0 1
    outer loop
      vertex 14.5 -2 0
      vertex 14.5 15.5 0
      vertex 4.5 13.5 0
    endloop
  endfacet
  facet normal 0 0 1
    outer loop
      vertex 14.5 -2 0
      vertex 4.5 13.5 0
      vertex 4.5 11.5 0
    endloop
  endfacet
  facet normal 0 0 1
    outer loop
      vertex 14.5 -2 0
      vertex 0 11.5 0
      vertex -10 15.5 0
    endloop
  endfacet
  facet normal 0 0 1
    outer loop
      vertex 4.5 2 0
      vertex 4.5 0 0
      vertex 14.5 -2 0
    endloop
  endfacet
  facet normal 1 0 0
    outer loop
      vertex 14.5 -2 0
      vertex 14.5 -2 -3
      vertex 14.5 15.5 -3
    endloop
  endfacet
  facet normal 1 0 0
    outer loop
      vertex 14.5 15.5 0
      vertex 14.5 -2 0
      vertex 14.5 15.5 -3
    endloop
  endfacet
  facet normal 0 1 0
    outer loop
      vertex 0 2 0
      vertex 0 2 18
      vertex 4.5 2 0
    endloop
  endfacet
  facet normal 0 1 0
    outer loop
      vertex 4.5 2 0
      vertex 0 2 18
      vertex 4.5 2 18
    endloop
  endfacet
  facet normal -1 0 0
    outer loop
      vertex 0 0 0
      vertex 0 0 18
      vertex 0 2 0
    endloop
  endfacet
  facet normal -1 0 0
    outer loop
      vertex 0 2 0
      vertex 0 0 18
      vertex 0 2 18
    endloop
  endfacet
  facet normal 0 -1 0
    outer loop
      vertex 0 0 18
      vertex 0 0 0
      vertex 4.5 0 0
    endloop
  endfacet
  facet normal 0 -1 0
    outer loop
      vertex 4.5 0 18
      vertex 0 0 18
      vertex 4.5 0 0
    endloop
  endfacet
  facet normal 1 0 0
    outer loop
      vertex 4.5 0 18
      vertex 4.5 0 0
      vertex 4.5 2 0
    endloop
  endfacet
  facet normal 1 0 0
    outer loop
      vertex 4.5 2 18
      vertex 4.5 0 18
      vertex 4.5 2 0
    endloop
  endfacet
  facet normal 0 1 0
    outer loop
      vertex 0 13.5 0
      vertex 0 13.5 18
      vertex 4.5 13.5 0
    endloop
  endfacet
  facet normal 0 1 0
    outer loop
      vertex 4.5 13.5 0
      vertex 0 13.5 18
      vertex 4.5 13.5 18
    endloop
  endfacet
  facet normal -1 0 0
    outer loop
      vertex 0 11.5 0
      vertex 0 11.5 18
      vertex 0 13.5 0
    endloop
  endfacet
  facet normal -1 0 0
    outer loop
      vertex 0 13.5 0
      vertex 0 11.5 18
      vertex 0 13.5 18
    endloop
  endfacet
  facet normal 0 -1 0
    outer loop
      vertex 0 11.5 18
      vertex 0 11.5 0
      vertex 4.5 11.5 0
    endloop
  endfacet
  facet normal 0 -1 0
    outer loop
      vertex 4.5 11.5 18
      vertex 0 11.5 18
      vertex 4.5 11.5 0
    endloop
  endfacet
  facet normal 1 0 0
    outer loop
      vertex 4.5 11.5 18
      vertex 4.5 11.5 0
      vertex 4.5 13.5 0
    endloop
  endfacet
  facet normal 1 0 0
    outer loop
      vertex 4.5 13.5 18
      vertex 4.5 11.5 18
      vertex 4.5 13.5 0
    endloop
  endfacet
  facet normal 0 0 1
    outer loop
      vertex 0 2 18
      vertex 0 0 18
      vertex 4.5 0 18
    endloop
  endfacet
  facet normal 0 0 1
    outer loop
      vertex 4.5 2 18
      vertex 0 2 18
      vertex 4.5 0 18
    endloop
  endfacet
  facet normal 0 0 1
    outer loop
      vertex 0 13.5 18
      vertex 0 11.5 18
      vertex 4.5 11.5 18
    endloop
  endfacet
  facet normal 0 0 1
    outer loop
      vertex 4.5 13.5 18
      vertex 0 13.5 18
      vertex 4.5 11.5 18
    endloop
  endfacet
endsolid OpenSCAD_Model
